<svg width="150" height="48" viewBox="0 0 150 48" fill="none" xmlns="http://www.w3.org/2000/svg">
<g clip-path="url(#clip0_9_185)">
<path d="M17.9991 26.0254C17.3943 25.3911 16.4468 24.9 15.1969 24.6136L13.2011 24.143C12.4754 23.9793 11.9512 23.7543 11.6287 23.4883C11.3465 23.2428 11.2053 22.9358 11.2053 22.5266C11.2053 22.0765 11.4271 21.6878 11.8706 21.3809C12.3343 21.0535 12.9391 20.8898 13.6648 20.8898C14.4309 20.8898 15.0155 21.0535 15.3783 21.4013C15.7614 21.7491 16.0436 22.1584 16.2049 22.588L16.3057 22.8335L18.8055 22.1788L18.7047 21.8719C18.5031 21.1967 18.1805 20.6034 17.7572 20.0919C17.3338 19.5804 16.7694 19.1711 16.1041 18.8642C15.4388 18.5778 14.6123 18.4346 13.685 18.4346C12.7576 18.4346 11.8303 18.6187 11.0441 18.9665C10.2578 19.3144 9.6329 19.8259 9.18939 20.4397C8.72572 21.074 8.48381 21.831 8.48381 22.6494C8.48381 23.6724 8.80636 24.5318 9.45146 25.1865C10.0764 25.8208 11.0239 26.3118 12.2738 26.5983L14.4712 27.1302C15.076 27.2734 15.5195 27.478 15.7815 27.744C16.0436 27.9896 16.1646 28.2965 16.1646 28.6852C16.1646 29.1353 15.9428 29.5241 15.4791 29.8719C14.9953 30.2402 14.3099 30.4039 13.443 30.4039C12.7173 30.4039 12.1125 30.2402 11.6488 29.9333C11.1852 29.6264 10.8828 29.1558 10.7014 28.5011L10.6207 28.2146L8.02014 28.8489L8.08062 29.1353C8.2419 29.9538 8.58461 30.6494 9.06843 31.2223C9.55226 31.7952 10.1772 32.2249 10.9231 32.4908C11.669 32.7773 12.5157 32.9205 13.443 32.9205C14.5115 32.9205 15.4791 32.7364 16.2855 32.3681C17.1121 31.9998 17.7773 31.4678 18.241 30.8131C18.7047 30.1584 18.9466 29.3809 18.9466 28.542C18.9466 27.5394 18.624 26.7006 17.9991 26.0458V26.0254Z" fill="#7E2BD9"/>
<path d="M30.2762 18.5781L27.3732 26.7213C27.091 27.5193 26.8491 28.3173 26.6475 29.0947C26.4459 28.3173 26.204 27.5193 25.9218 26.7213L23.039 18.5781H20.0554L25.2162 32.3684L24.8735 33.371C24.6719 33.9643 24.4501 34.394 24.188 34.6804C23.9461 34.926 23.7042 35.0692 23.4018 35.1306C23.0994 35.1715 22.7366 35.1306 22.3334 35.0487L21.8294 34.9055L21.1238 37.2994L21.3456 37.4221C21.4867 37.4835 21.6883 37.5449 21.9907 37.6063C22.2931 37.6676 22.6358 37.6881 23.039 37.6881C23.7042 37.6881 24.309 37.5653 24.8332 37.3403C25.3775 37.0947 25.8411 36.7265 26.2443 36.2354C26.6273 35.7444 26.9701 35.1306 27.2523 34.394L33.1993 18.5781H30.2359H30.2762Z" fill="#7E2BD9"/>
<path d="M45.5772 20.8284C45.174 20.0305 44.6096 19.4167 43.8838 19.0279C43.1783 18.6392 42.3316 18.4346 41.4042 18.4346C40.3559 18.4346 39.4084 18.721 38.6222 19.2734C38.2593 19.519 37.957 19.8463 37.6747 20.2351V18.5983H35.0137V32.6136H37.7352V24.2658C37.7352 23.5497 37.8763 22.9563 38.1384 22.4653C38.4005 21.9742 38.7633 21.6059 39.2068 21.3604C39.6705 21.1149 40.1947 20.9717 40.7591 20.9717C41.6058 20.9717 42.2308 21.2172 42.7146 21.7491C43.1984 22.2607 43.4403 23.0177 43.4403 23.9589V32.5931H46.1619V23.7747C46.1619 22.588 45.9603 21.6059 45.5772 20.808V20.8284Z" fill="#7E2BD9"/>
<path d="M54.9514 30.0564L54.6691 30.1178C54.5079 30.1587 54.3063 30.1792 54.1047 30.2201C53.9232 30.2405 53.762 30.261 53.641 30.261C53.1773 30.261 52.8548 30.1587 52.6734 29.9541C52.4919 29.729 52.3911 29.3607 52.3911 28.8492V21.0743H55.1127V18.6191H52.3911V15.4272H49.6696V18.6191H47.694V21.0743H49.6696V29.0129C49.6696 30.1996 50.0325 31.1203 50.7179 31.7955C51.4033 32.4503 52.371 32.7981 53.6007 32.7981C53.8829 32.7981 54.1853 32.7776 54.4675 32.7367C54.7699 32.6958 55.032 32.6344 55.2739 32.5321L55.536 32.4298L54.9715 30.0564H54.9514Z" fill="#7E2BD9"/>
<path d="M67.2487 20.808C66.8858 20.1328 66.402 19.6213 65.8375 19.2734C65.2932 18.9256 64.7086 18.7006 64.1038 18.5983C63.5192 18.496 62.995 18.4346 62.5515 18.4346C61.8459 18.4346 61.1403 18.5369 60.4146 18.7415C59.6889 18.9461 59.0034 19.2939 58.3987 19.7645C57.7939 20.2555 57.2899 20.9307 56.927 21.7901L56.8061 22.097L59.4066 22.9768L59.5276 22.7312C59.6485 22.4448 59.8501 22.1788 60.1122 21.8924C60.3541 21.6264 60.6968 21.4013 61.1 21.2172C61.5032 21.033 62.0072 20.9512 62.5918 20.9512C63.1764 20.9512 63.62 21.0535 63.9828 21.2376C64.3457 21.4218 64.5876 21.6673 64.769 21.9947C64.9505 22.3425 65.0311 22.7722 65.0311 23.3451C65.0311 23.611 64.9303 23.7133 64.8295 23.7747C64.6279 23.8975 64.2852 23.9793 63.8417 24.0202C63.3377 24.0816 62.6926 24.1635 61.9064 24.2658C61.2815 24.3476 60.6565 24.4499 60.0517 24.5931C59.4268 24.7364 58.8422 24.9614 58.318 25.2479C57.7737 25.5548 57.3302 25.964 57.0076 26.496C56.6851 27.0279 56.5037 27.7031 56.5037 28.5215C56.5037 29.4627 56.7254 30.2607 57.1488 30.9358C57.5721 31.5906 58.1769 32.1021 58.9026 32.4499C59.6284 32.7773 60.4348 32.9614 61.3016 32.9614C62.0878 32.9614 62.7733 32.8387 63.3377 32.5931C63.9022 32.3476 64.3659 32.0612 64.7287 31.6929C64.8497 31.5701 64.9706 31.4269 65.0714 31.3041V32.6341H67.7728V23.4883C67.7728 22.3834 67.5914 21.5036 67.2285 20.8284L67.2487 20.808ZM65.0513 26.1072V27.4371C65.0513 27.9282 64.9303 28.3988 64.6683 28.8489C64.4062 29.299 64.0433 29.6673 63.5393 29.9538C63.0353 30.2402 62.4305 30.3834 61.6846 30.3834C61.2008 30.3834 60.7573 30.3016 60.3944 30.1584C60.0316 30.0151 59.7493 29.8105 59.5477 29.5445C59.3461 29.2786 59.2655 28.9717 59.2655 28.5624C59.2655 28.1328 59.3663 27.785 59.5881 27.5599C59.8098 27.2939 60.1324 27.0893 60.5356 26.9665C60.9589 26.8233 61.4226 26.721 61.9064 26.6596L62.7329 26.5573C63.0958 26.5164 63.4587 26.455 63.8417 26.3936C64.2247 26.3323 64.5674 26.2504 64.8698 26.1686C64.9303 26.1686 64.9908 26.1277 65.0513 26.1072Z" fill="#7E2BD9"/>
<path d="M80.4531 23.9387L80.3927 23.8568L78.3364 20.7469L72.2281 11.5806L72.1071 11.3965H67.7124L76.26 24.0001L65.4142 40.0001H69.7283L78.2356 27.2533L80.3524 24.0614L80.4531 23.9387Z" fill="#7E2BD9"/>
<path d="M81.0176 22.9565L91.1578 8H86.8235L78.9412 19.8261L81.0176 22.9565Z" fill="#7E2BD9"/>
<path d="M78.8404 28.1737L84.3238 36.4192L84.4447 36.6034H88.8395L80.9773 24.9614L78.8404 28.1737Z" fill="#7E2BD9"/>
<path d="M102.346 18.5781L100.673 24.6548C100.451 25.4937 100.209 26.4144 99.9473 27.4374C99.8667 27.7852 99.7861 28.1331 99.7054 28.5014C99.6248 28.1331 99.5441 27.7648 99.4635 27.417C99.2216 26.3939 98.9998 25.4732 98.7781 24.6548L97.1653 18.5781H94.4438L92.7907 24.6548C92.569 25.5141 92.3271 26.4349 92.0851 27.4579C92.0045 27.8057 91.9239 28.1535 91.8432 28.5014C91.7626 28.1126 91.6618 27.7239 91.5812 27.376C91.3191 26.353 91.0973 25.4528 90.8756 24.6548L89.2023 18.5781H86.2994L90.4925 32.5934H93.0528L94.8268 26.3121C95.0083 25.7187 95.1695 25.0845 95.3308 24.4297C95.4719 23.8569 95.6332 23.2635 95.7743 22.6497C95.9154 23.243 96.0566 23.8364 96.2178 24.4093C96.3791 25.0436 96.5605 25.6778 96.7218 26.2916L98.4959 32.573H101.056L105.249 18.5576H102.346V18.5781Z" fill="#7E2BD9"/>
<path d="M118.434 25.4325C118.434 24.1639 118.252 23.0591 117.909 22.1793C117.567 21.279 117.083 20.5424 116.498 19.99C115.914 19.4376 115.248 19.0284 114.543 18.7828C113.837 18.5373 113.111 18.4146 112.366 18.4146C111.116 18.4146 110.007 18.7215 109.059 19.3557C108.132 19.9695 107.386 20.8493 106.882 21.9337C106.378 23.0181 106.116 24.2867 106.116 25.6984C106.116 27.1102 106.378 28.3787 106.902 29.4427C107.427 30.5271 108.193 31.366 109.16 31.9798C110.128 32.5731 111.297 32.88 112.628 32.88C113.575 32.88 114.422 32.7368 115.168 32.4299C115.934 32.123 116.579 31.6933 117.083 31.1614C117.607 30.6089 117.97 29.9747 118.192 29.2585L118.292 28.9516L115.672 28.2151L115.571 28.481C115.43 28.8903 115.208 29.2381 114.926 29.5041C114.644 29.77 114.321 29.9951 113.938 30.1179C113.555 30.2611 113.111 30.3225 112.628 30.3225C111.882 30.3225 111.216 30.1588 110.652 29.8314C110.088 29.5041 109.664 29.013 109.342 28.3992C109.1 27.8877 108.938 27.2943 108.878 26.5987H118.393V25.3915L118.434 25.4325ZM109.322 22.9158C109.604 22.3429 110.007 21.8519 110.511 21.4836C111.015 21.1358 111.66 20.9516 112.386 20.9516C113.111 20.9516 113.716 21.1358 114.2 21.4836C114.684 21.8314 115.067 22.3225 115.309 22.9567C115.47 23.3455 115.571 23.7547 115.631 24.2048H108.938C108.999 23.7547 109.12 23.325 109.322 22.9158Z" fill="#7E2BD9"/>
<path d="M131.033 20.808C130.67 20.1328 130.187 19.6213 129.622 19.2734C129.078 18.9256 128.493 18.7006 127.888 18.5983C127.304 18.496 126.78 18.4346 126.336 18.4346C125.63 18.4346 124.925 18.5369 124.199 18.7415C123.473 18.9461 122.788 19.2939 122.183 19.7645C121.578 20.2555 121.074 20.9307 120.712 21.7901L120.591 22.097L123.191 22.9768L123.312 22.7312C123.433 22.4448 123.635 22.1788 123.897 21.8924C124.139 21.6264 124.481 21.4013 124.885 21.2172C125.288 21.033 125.792 20.9512 126.376 20.9512C126.961 20.9512 127.404 21.0535 127.767 21.2376C128.13 21.4218 128.372 21.6673 128.554 21.9947C128.735 22.3425 128.816 22.7722 128.816 23.3451C128.816 23.611 128.715 23.7133 128.614 23.7747C128.412 23.8975 128.07 23.9793 127.626 24.0202C127.122 24.0816 126.477 24.1635 125.691 24.2658C125.066 24.3476 124.441 24.4499 123.836 24.5931C123.211 24.7364 122.627 24.9614 122.103 25.2479C121.558 25.5548 121.115 25.964 120.792 26.496C120.47 27.0279 120.288 27.7031 120.288 28.5215C120.288 29.4627 120.51 30.2607 120.933 30.9358C121.357 31.5906 121.961 32.1021 122.687 32.4499C123.413 32.7773 124.219 32.9614 125.086 32.9614C125.872 32.9614 126.558 32.8387 127.122 32.5931C127.687 32.3476 128.15 32.0612 128.513 31.6929C128.634 31.5701 128.755 31.4269 128.856 31.3041V32.6341H131.557V23.4883C131.557 22.3834 131.376 21.5036 131.013 20.8284L131.033 20.808ZM128.836 26.1072V27.4371C128.836 27.9282 128.715 28.3988 128.453 28.8489C128.191 29.299 127.828 29.6673 127.324 29.9538C126.82 30.2402 126.215 30.3834 125.469 30.3834C124.985 30.3834 124.542 30.3016 124.179 30.1584C123.816 30.0151 123.534 29.8105 123.332 29.5445C123.131 29.2786 123.05 28.9717 123.05 28.5624C123.05 28.1328 123.151 27.785 123.373 27.5599C123.594 27.2939 123.917 27.0893 124.32 26.9665C124.743 26.8233 125.207 26.721 125.691 26.6596L126.517 26.5573C126.88 26.5164 127.243 26.455 127.626 26.3936C128.009 26.3323 128.352 26.2504 128.654 26.1686C128.715 26.1686 128.775 26.1277 128.836 26.1072Z" fill="#7E2BD9"/>
<path d="M141.718 18.4348C141.597 18.4348 141.415 18.4348 141.194 18.4144C140.972 18.3939 140.79 18.4144 140.629 18.4144C139.782 18.4144 139.016 18.6394 138.351 19.0896C137.948 19.3555 137.625 19.6624 137.363 20.0307V18.619H134.702V32.6343H137.424V23.9387C137.424 23.3862 137.545 22.8952 137.807 22.486C138.069 22.0768 138.412 21.7289 138.855 21.5039C139.319 21.2584 139.823 21.1356 140.407 21.1356C140.669 21.1356 140.932 21.1356 141.173 21.1765C141.415 21.197 141.556 21.2174 141.617 21.2379L142 21.3402V18.4962H141.718V18.4348Z" fill="#7E2BD9"/>
</g>
<defs>
<clipPath id="clip0_9_185">
<rect width="134" height="32" fill="white" transform="translate(8 8)"/>
</clipPath>
</defs>
</svg>
