<svg width="22" height="22" viewBox="0 0 22 22" fill="none" xmlns="http://www.w3.org/2000/svg">
<path d="M8.86282 15.3421C9.10887 15.3421 9.31507 15.2588 9.48142 15.0923C9.64758 14.9259 9.73066 14.7197 9.73066 14.4737V7.52632C9.73066 7.28026 9.64739 7.07406 9.48084 6.90771C9.31449 6.74117 9.10819 6.65789 8.86195 6.65789C8.6159 6.65789 8.40969 6.74117 8.24334 6.90771C8.07718 7.07406 7.99411 7.28026 7.99411 7.52632V14.4737C7.99411 14.7197 8.07728 14.9259 8.24363 15.0923C8.41018 15.2588 8.61657 15.3421 8.86282 15.3421ZM13.1381 15.3421C13.3841 15.3421 13.5903 15.2588 13.7567 15.0923C13.9228 14.9259 14.0059 14.7197 14.0059 14.4737V7.52632C14.0059 7.28026 13.9227 7.07406 13.7564 6.90771C13.5898 6.74117 13.3834 6.65789 13.1372 6.65789C12.8911 6.65789 12.6849 6.74117 12.5186 6.90771C12.3524 7.07406 12.2693 7.28026 12.2693 7.52632V14.4737C12.2693 14.7197 12.3526 14.9259 12.5192 15.0923C12.6855 15.2588 12.8918 15.3421 13.1381 15.3421ZM11.002 22C9.48055 22 8.05046 21.7113 6.71174 21.1339C5.37302 20.5565 4.20856 19.7729 3.21837 18.7831C2.22818 17.7933 1.44418 16.6293 0.866395 15.2912C0.288798 13.953 0 12.5233 0 11.002C0 9.48055 0.288702 8.05046 0.866105 6.71174C1.44351 5.37302 2.22711 4.20856 3.21692 3.21837C4.20673 2.22818 5.3707 1.44418 6.70884 0.866395C8.04698 0.288798 9.47669 0 10.998 0C12.5194 0 13.9495 0.288701 15.2883 0.866105C16.627 1.44351 17.7914 2.22711 18.7816 3.21692C19.7718 4.20673 20.5558 5.3707 21.1336 6.70884C21.7112 8.04698 22 9.47669 22 10.998C22 12.5194 21.7113 13.9495 21.1339 15.2883C20.5565 16.627 19.7729 17.7914 18.7831 18.7816C17.7933 19.7718 16.6293 20.5558 15.2912 21.1336C13.953 21.7112 12.5233 22 11.002 22ZM11 20.2632C13.586 20.2632 15.7763 19.3658 17.5711 17.5711C19.3658 15.7763 20.2632 13.586 20.2632 11C20.2632 8.41403 19.3658 6.22368 17.5711 4.42895C15.7763 2.63421 13.586 1.73684 11 1.73684C8.41403 1.73684 6.22368 2.63421 4.42895 4.42895C2.63421 6.22368 1.73684 8.41403 1.73684 11C1.73684 13.586 2.63421 15.7763 4.42895 17.5711C6.22368 19.3658 8.41403 20.2632 11 20.2632Z" fill="#5F6368"/>
</svg>
