<svg width="20" height="20" viewBox="0 0 20 20" fill="none" xmlns="http://www.w3.org/2000/svg">
<path d="M9.99971 20C9.75667 20 9.55314 19.9178 9.38914 19.7534C9.22495 19.5892 9.14286 19.3857 9.14286 19.1429V14.5714C9.14286 14.3286 9.22505 14.125 9.38943 13.9609C9.55381 13.7965 9.75743 13.7143 10.0003 13.7143C10.2433 13.7143 10.4469 13.7965 10.6109 13.9609C10.775 14.125 10.8571 14.3286 10.8571 14.5714V16H19.1429C19.3857 16 19.5892 16.0822 19.7534 16.2466C19.9178 16.411 20 16.6146 20 16.8574C20 17.1005 19.9178 17.304 19.7534 17.468C19.5892 17.6322 19.3857 17.7143 19.1429 17.7143H10.8571V19.1429C10.8571 19.3857 10.775 19.5892 10.6106 19.7534C10.4462 19.9178 10.2426 20 9.99971 20ZM0.857143 17.7143C0.614286 17.7143 0.410762 17.6321 0.246572 17.4677C0.0821906 17.3033 0 17.0997 0 16.8569C0 16.6138 0.0821906 16.4103 0.246572 16.2463C0.410762 16.0821 0.614286 16 0.857143 16H5.42857C5.67143 16 5.87495 16.0822 6.03914 16.2466C6.20352 16.411 6.28571 16.6146 6.28571 16.8574C6.28571 17.1005 6.20352 17.304 6.03914 17.468C5.87495 17.6322 5.67143 17.7143 5.42857 17.7143H0.857143ZM5.42829 13.1429C5.18524 13.1429 4.98171 13.0607 4.81771 12.8963C4.65352 12.7321 4.57143 12.5286 4.57143 12.2857V10.8571H0.857143C0.614286 10.8571 0.410762 10.775 0.246572 10.6106C0.0821906 10.4462 0 10.2426 0 9.99971C0 9.75667 0.0821906 9.55314 0.246572 9.38914C0.410762 9.22495 0.614286 9.14286 0.857143 9.14286H4.57143V7.71429C4.57143 7.47143 4.65362 7.2679 4.818 7.10371C4.98238 6.93933 5.186 6.85714 5.42886 6.85714C5.67191 6.85714 5.87543 6.93933 6.03943 7.10371C6.20362 7.2679 6.28571 7.47143 6.28571 7.71429V12.2857C6.28571 12.5286 6.20352 12.7321 6.03914 12.8963C5.87476 13.0607 5.67114 13.1429 5.42829 13.1429ZM10 10.8571C9.75714 10.8571 9.55362 10.775 9.38943 10.6106C9.22505 10.4462 9.14286 10.2426 9.14286 9.99971C9.14286 9.75667 9.22505 9.55314 9.38943 9.38914C9.55362 9.22495 9.75714 9.14286 10 9.14286H19.1429C19.3857 9.14286 19.5892 9.22505 19.7534 9.38943C19.9178 9.55381 20 9.75743 20 10.0003C20 10.2433 19.9178 10.4469 19.7534 10.6109C19.5892 10.775 19.3857 10.8571 19.1429 10.8571H10ZM14.5711 6.28571C14.3281 6.28571 14.1246 6.20352 13.9606 6.03914C13.7964 5.87495 13.7143 5.67143 13.7143 5.42857V0.857143C13.7143 0.614286 13.7965 0.410762 13.9609 0.246572C14.1252 0.0821906 14.3289 0 14.5717 0C14.8148 0 15.0183 0.0821906 15.1823 0.246572C15.3465 0.410762 15.4286 0.614286 15.4286 0.857143V2.28571H19.1429C19.3857 2.28571 19.5892 2.3679 19.7534 2.53229C19.9178 2.69667 20 2.90029 20 3.14314C20 3.38619 19.9178 3.58971 19.7534 3.75371C19.5892 3.9179 19.3857 4 19.1429 4H15.4286V5.42857C15.4286 5.67143 15.3464 5.87495 15.182 6.03914C15.0176 6.20352 14.814 6.28571 14.5711 6.28571ZM0.857143 4C0.614286 4 0.410762 3.91781 0.246572 3.75343C0.0821906 3.58905 0 3.38543 0 3.14257C0 2.89952 0.0821906 2.696 0.246572 2.532C0.410762 2.36781 0.614286 2.28571 0.857143 2.28571H10C10.2429 2.28571 10.4464 2.3679 10.6106 2.53229C10.775 2.69667 10.8571 2.90029 10.8571 3.14314C10.8571 3.38619 10.775 3.58971 10.6106 3.75371C10.4464 3.9179 10.2429 4 10 4H0.857143Z" fill="#5F6368"/>
</svg>
